HIERARCHY
ROOT Hips
{
    OFFSET 0.000000 0.000000 0.000000
    CHANNELS 6 Xposition Yposition Zposition Zrotation Xrotation Yrotation
    JOINT Spine
    {
        OFFSET -0.000000 8.104110 0.000000
        CHANNELS 3 Zrotation Xrotation Yrotation
        JOINT Spine1
        {
            OFFSET -0.000000 22.417536 0.000000
            CHANNELS 3 Zrotation Xrotation Yrotation
            JOINT Neck
            {
                OFFSET -0.000000 22.325472 2.029588
                CHANNELS 3 Zrotation Xrotation Yrotation
                JOINT Head
                {
                    OFFSET -0.000000 13.836284 -1.976612
                    CHANNELS 3 Zrotation Xrotation Yrotation
                    End Site
                    {
                        OFFSET -0.000000 24.707651 0.000000
                    }
                }
            }
            JOINT LeftShoulder
            {
                OFFSET 3.973640 20.379602 -0.279950
                CHANNELS 3 Zrotation Xrotation Yrotation
                JOINT LeftArm
                {
                    OFFSET 11.493720 0.000000 0.000000
                    CHANNELS 3 Zrotation Xrotation Yrotation
                    JOINT LeftForeArm
                    {
                        OFFSET 31.336695 0.000000 0.000000
                        CHANNELS 3 Zrotation Xrotation Yrotation
                        JOINT LeftHand
                        {
                            OFFSET 29.043781 0.000000 0.000000
                            CHANNELS 3 Zrotation Xrotation Yrotation
                            End Site
                            {
                                OFFSET 14.824592 0.000000 0.000000
                            }
                        }
                    }
                }
            }
            JOINT RightShoulder
            {
                OFFSET -3.921018 20.379602 -0.279950
                CHANNELS 3 Zrotation Xrotation Yrotation
                JOINT RightArm
                {
                    OFFSET -11.493720 0.000000 0.000000
                    CHANNELS 3 Zrotation Xrotation Yrotation
                    JOINT RightForeArm
                    {
                        OFFSET -31.336695 0.000000 0.000000
                        CHANNELS 3 Zrotation Xrotation Yrotation
                        JOINT RightHand
                        {
                            OFFSET -29.043781 0.000000 0.000000
                            CHANNELS 3 Zrotation Xrotation Yrotation
                            End Site
                            {
                                OFFSET -14.824592 0.000000 0.000000
                            }
                        }
                    }
                }
            }
        }
    }
    JOINT LeftUpLeg
    {
        OFFSET 9.883060 0.000000 0.000000
        CHANNELS 3 Zrotation Xrotation Yrotation
        JOINT LeftLeg
        {
            OFFSET -0.000000 -43.587502 0.000000
            CHANNELS 3 Zrotation Xrotation Yrotation
            JOINT LeftFoot
            {
                OFFSET -0.000000 -41.501083 0.000000
                CHANNELS 3 Zrotation Xrotation Yrotation
                JOINT LeftToeBase
                {
                    OFFSET -0.000000 -6.423989 14.824592
                    CHANNELS 3 Zrotation Xrotation Yrotation
                    End Site
                    {
                        OFFSET -0.000000 0.000000 3.953224
                    }
                }
            }
        }
    }
    JOINT RightUpLeg
    {
        OFFSET -9.883060 0.000000 0.000000
        CHANNELS 3 Zrotation Xrotation Yrotation
        JOINT RightLeg
        {
            OFFSET -0.000000 -43.587502 0.000000
            CHANNELS 3 Zrotation Xrotation Yrotation
            JOINT RightFoot
            {
                OFFSET -0.000000 -41.501083 0.000000
                CHANNELS 3 Zrotation Xrotation Yrotation
                JOINT RightToeBase
                {
                    OFFSET -0.000000 -6.423989 14.824592
                    CHANNELS 3 Zrotation Xrotation Yrotation
                    End Site
                    {
                        OFFSET -0.000000 0.000000 3.953224
                    }
                }
            }
        }
    }
}
MOTION
Frames:    7
Frame Time:    0.008333
-1.200555    94.666237    -110.977364    -1.315530    0.131706    -173.024170    -0.186068    -15.128250    2.416340    4.700696    17.323069    1.724597    -6.843403    6.848623    -3.182187    2.942686    7.633110    -2.490550    -1.422302    9.853997    2.078595    -62.783390    61.451523    -3.132256    -8.236088    -23.027006    -46.774387    16.451338    -27.306332    -8.015673    -1.922669    10.455372    -3.228047    37.407051    43.206573    31.310585    -3.093699    -35.642807    51.534889    -0.877005    -34.575722    24.454687    -3.253181    -29.391186    -3.121933    2.778988    51.033051    -5.177684    -5.956779    3.012347    8.157930    0.000000    0.000000    0.000000    1.144324    9.141229    -7.969872    5.260119    -1.453942    4.973456    0.837197    -8.705065    -13.755349    0.000000    0.000000    0.000000    
-1.165730    94.641434    -111.710861    -1.287296    0.017919    -173.211044    -0.199499    -15.219584    2.533123    4.879049    17.427599    1.811527    -7.002041    7.126966    -3.374158    2.637655    6.762136    -2.697568    -1.753432    9.827088    2.148790    -63.284554    61.504089    -2.369304    -8.324672    -23.079992    -46.970642    16.761929    -27.386570    -7.711592    -2.132495    10.234026    -3.354516    37.180153    43.088833    31.784973    -3.239680    -35.951355    51.870842    -1.379178    -34.905457    24.001074    -3.420727    -29.568403    -3.071161    2.794305    48.558247    -5.122047    -6.600275    3.309006    8.685854    0.000000    0.000000    0.000000    1.222047    9.557636    -7.886577    5.287271    -1.647979    4.999167    0.795504    -8.645943    -13.665557    0.000000    0.000000    0.000000    
-1.157938    94.607208    -112.434875    -1.316069    -0.130534    -173.375381    -0.178485    -15.338356    2.699091    4.657735    17.483879    2.006525    -6.838428    6.855581    -3.319697    2.751541    7.092072    -2.636212    -1.461391    9.869887    2.077371    -64.091011    61.063107    -1.796667    -8.408768    -22.808325    -46.876247    16.681894    -27.141571    -7.687264    -2.061015    10.208762    -3.172894    37.534046    41.815929    31.475706    -2.974707    -35.355377    52.321163    -0.532812    -34.250412    24.692177    -3.721494    -29.682419    -2.988631    3.015068    45.910648    -5.391778    -6.115948    3.429951    8.740485    0.000000    0.000000    0.000000    1.202676    9.881290    -7.991449    5.335394    -1.700360    5.068118    0.806152    -8.659423    -13.483832    0.000000    0.000000    0.000000    
-1.094252    94.592415    -113.189194    -1.162178    -0.159246    -173.587570    -0.144174    -15.362834    2.846706    4.902299    17.564327    2.108347    -7.060340    6.848517    -3.364207    2.762179    6.827423    -2.655445    -1.740764    10.064598    2.074036    -64.099785    60.736664    -1.650113    -8.554864    -22.642216    -46.859550    16.388617    -27.049643    -7.926976    -2.146121    10.060801    -3.343387    36.902874    41.828411    32.056267    -2.999596    -35.693317    52.632591    -0.838884    -34.628704    24.540934    -3.675362    -29.599813    -3.015790    2.870844    43.134811    -5.288651    -6.969728    3.879156    9.174315    0.000000    0.000000    0.000000    1.472785    10.306497    -7.956413    5.242879    -1.776307    4.950684    0.818789    -8.553331    -13.262787    0.000000    0.000000    0.000000    
-1.078812    94.546341    -113.932076    -1.206521    -0.256163    -173.741364    -0.131941    -15.440392    2.976414    4.635041    17.639662    2.274750    -7.091252    6.731245    -3.446628    3.132788    6.918026    -2.702448    -1.550051    10.197494    2.060906    -64.391869    60.324940    -1.498895    -8.703042    -22.444805    -46.748886    16.330038    -26.904718    -7.931439    -1.993577    10.090426    -3.112269    37.010262    41.460510    32.021275    -3.453599    -36.034546    52.822018    -0.846117    -34.784985    24.456907    -3.960486    -29.474575    -2.961221    3.058401    40.301826    -5.687806    -7.143942    4.198093    9.540149    0.000000    0.000000    0.000000    1.456350    10.717235    -8.044041    5.269867    -1.859774    5.081250    0.755873    -8.598854    -13.178969    0.000000    0.000000    0.000000    
-1.052043    94.510254    -114.693359    -1.154096    -0.295250    -173.908203    -0.052266    -15.474838    3.096995    4.445050    17.664747    2.413069    -6.762668    6.790010    -3.359898    2.878969    6.731739    -2.661166    -1.427408    10.268702    2.123524    -64.675720    60.376438    -1.248413    -8.675345    -22.399475    -46.650787    15.962738    -26.847467    -8.156320    -1.780640    10.082631    -2.992463    36.409744    41.573483    32.301300    -3.716881    -36.575920    53.166538    -1.290490    -35.289608    23.874380    -4.099091    -29.223146    -2.882702    3.174892    37.372692    -5.778840    -7.440734    4.426472    9.619094    0.000000    0.000000    0.000000    1.561344    11.149698    -8.160727    5.278019    -1.903501    5.068602    0.793983    -8.559428    -12.945507    0.000000    0.000000    0.000000    
-1.040732    94.445358    -115.443245    -1.136798    -0.399046    -174.022110    -0.071612    -15.505686    3.152340    4.543591    17.682573    2.455003    -6.970901    6.707524    -3.453516    2.851430    6.710680    -2.736907    -1.573109    10.156653    2.120540    -65.173950    60.383080    -0.621099    -8.871710    -22.425682    -46.747509    16.269117    -26.948544    -7.937381    -2.114497    9.958951    -2.872747    37.040352    40.640362    32.172958    -3.808137    -36.040077    53.193729    -0.223247    -34.522362    24.777317    -4.310220    -28.985256    -2.905587    3.249755    34.382427    -5.919292    -7.572911    4.758348    9.767485    0.000000    0.000000    0.000000    1.595163    11.519051    -8.323746    5.298825    -1.882134    5.340989    0.771713    -8.686932    -12.926600    0.000000    0.000000    0.000000    
